<svg xmlns="http://www.w3.org/2000/svg" xmlns:xlink="http://www.w3.org/1999/xlink" xmlns:lucid="lucid" width="1328.31" height="1131.82"><g transform="translate(-754.1618980175173 -28.68417808487368)" lucid:page-tab-id=".Q4MUjXso07N"><path d="M500 0h2000v1500H500z" fill="#fff"/><path d="M960 57.18a8 8 0 0 1 8-8h924a8 8 0 0 1 8 8V1132a8 8 0 0 1-8 8H968a8 8 0 0 1-8-8z" stroke="#000" fill-opacity="0"/><use xlink:href="#a" transform="matrix(1,0,0,1,968,57.18417808487368) translate(425.12376543209876 17.95555555555555)"/><path d="M1200 160c0 33.14-35.82 60-80 60s-80-26.86-80-60 35.82-60 80-60 80 26.86 80 60z" stroke="#000" fill="#4d9eff"/><use xlink:href="#b" transform="matrix(1,0,0,1,1064,124) translate(18.49382716049383 28.888888888888886)"/><use xlink:href="#c" transform="matrix(1,0,0,1,1064,124) translate(39.25925925925927 50.22222222222222)"/><path d="M1200 700c0 33.14-35.82 60-80 60s-80-26.86-80-60 35.82-60 80-60 80 26.86 80 60z" stroke="#000" fill="#ff80df"/><use xlink:href="#d" transform="matrix(1,0,0,1,1064,664) translate(6.6666666666666785 28.888888888888886)"/><use xlink:href="#e" transform="matrix(1,0,0,1,1064,664) translate(90.5185185185185 28.888888888888886)"/><use xlink:href="#c" transform="matrix(1,0,0,1,1064,664) translate(39.25925925925927 50.22222222222222)"/><path d="M1800 184.62c0 33.14-35.82 60-80 60s-80-26.86-80-60c0-33.13 35.82-60 80-60s80 26.87 80 60z" stroke="#000" fill="#9391ff"/><use xlink:href="#f" transform="matrix(1,0,0,1,1664,148.62190200502) translate(20.98765432098766 39.55555555555556)"/><use xlink:href="#c" transform="matrix(1,0,0,1,1664,148.62190200502) translate(57.53086419753086 39.55555555555556)"/><path d="M1460 525.84c0 33.14-35.82 60-80 60s-80-26.86-80-60c0-33.13 35.82-60 80-60s80 26.87 80 60z" stroke="#000" fill="#00c2a8"/><use xlink:href="#g" transform="matrix(1,0,0,1,1324,489.84434056613304) translate(34.296296296296305 39.55555555555556)"/><path d="M840.98 238.95l204.5-55.03M841 238.95l-3.4.9" stroke="#3a414a" fill="none"/><path d="M1046.23 184.22l-.63.16-.24-.9.36-.1z" stroke="#3a414a" stroke-width=".05" fill="#3a414a"/><path d="M840.75 240.14l239.98 406.52M840.76 240.15l-1.78-3.03" stroke="#3a414a" fill="none"/><path d="M1081.42 646.9l-.88.4-.23-.4.83-.5z" stroke="#3a414a" stroke-width=".05" fill="#3a414a"/><path d="M2021.73 649.76L1786.5 219.42" stroke="#3a414a" fill="none"/><path d="M2022.7 650.55l-.73-.35-.43.2-.23-.42.84-.46zM1786.92 219.2l-.84.46-.16-.3.07-.07.6-.7z" stroke="#3a414a" stroke-width=".05" fill="#3a414a"/><path d="M1180.68 659.65l4.43-2.65m4.44-2.65l8.85-5.3m4.4-2.65l8.86-5.3m4.43-2.66l8.84-5.3m4.43-2.65l8.85-5.32m4.42-2.65l8.85-5.3m4.42-2.65l8.85-5.3m4.43-2.65l8.85-5.3m4.42-2.66l8.85-5.3m4.43-2.65l8.85-5.3m4.43-2.66l8.85-5.3m4.42-2.65l4.43-2.64" stroke="#3a414a" fill="none"/><path d="M1180.94 660.05l-.3.2-.76-.67.57-.34z" stroke="#3a414a" stroke-width=".05" fill="#3a414a"/><path d="M1317.13 589.78l9.53-17.58-20 .1" stroke="#3a414a" fill="none"/><use xlink:href="#h" transform="matrix(1,0,0,1,1173.4499434117718,577.0652274825028) translate(0 14.222222222222223)"/><path d="M1341.9 471.45l-.76.57-3-4.06.76-.56zm-6-8.1l-.77.55-6-8.12.75-.56zm-9.02-12.2l-.77.57-6-8.12.76-.56zm-9.02-12.17l-.77.56-6.02-8.12.77-.56zm-9.02-12.18l-.76.56-6.02-8.12.77-.56zm-9.02-12.18l-.76.56-6.02-8.12.77-.56zm-9.02-12.18l-.76.56-6-8.12.75-.56zm-9.02-12.18l-.76.56-6-8.12.75-.56zm-9.02-12.18l-.76.56-6-8.12.75-.56zm-9.02-12.18l-.76.56-6-8.1.75-.58zm-27.05-36.54l-.78.57-6-8.12.76-.56zm-9.03-12.18l-.76.57-6-8.12.76-.57zm-9.02-12.18l-.76.57-6.03-8.12.77-.57zm-9.02-12.18l-.76.57-6-8.13.75-.57zm-9.02-12.18l-.75.57-6-8.1.75-.58zm-9-12.18l-.77.57-6-8.12.75-.56zm-9.02-12.18l-.77.57-6-8.12.76-.57zm-9.02-12.18l-.77.57-6.02-8.12.77-.56zm-9.02-12.17l-.76.56-6.02-8.13.77-.56zm-9.02-12.2l-.76.58-3-4.05.75-.56z" stroke="#3a414a" stroke-width=".05" fill="#3a414a"/><path d="M1152.52 215.7l-.76.56-.4-.55.96-.28z" fill="#3a414a"/><path stroke="#3a414a" stroke-width=".05" fill="#3a414a"/><path d="M1342.04 472.43l-19.17-8.1.37-.87 17.7 7.47-2-19.1.95-.1z" stroke="#3a414a" stroke-width=".05" fill="#3a414a"/><use xlink:href="#h" transform="matrix(1,0,0,1,1193.6665970739157,333.35083827423045) translate(0 14.222222222222223)"/><path d="M2041.72 579.75c0 10.9-8.85 19.75-19.75 19.75s-19.75-8.84-19.75-19.75c0-10.9 8.84-19.75 19.75-19.75 10.9 0 19.75 8.84 19.75 19.75z" stroke="#333" fill="#fff"/><path d="M2021.97 599.5v49.3a20.7 20.7 0 0 0 3.2 11.07l36.8 58.13m-40-63.2l-40 63.2m0-98.75h80" stroke="#333" fill="none"/><path d="M1981.97 566a6 6 0 0 1 6-6h68a6 6 0 0 1 6 6v168a6 6 0 0 1-6 6h-68a6 6 0 0 1-6-6z" fill="none"/><use xlink:href="#i" transform="matrix(1,0,0,1,1901.9677316121124,718) translate(81.85185185185185 17.77777777777778)"/><path d="M859.75 179.75c0 10.9-8.84 19.75-19.75 19.75-10.9 0-19.75-8.84-19.75-19.75 0-10.9 8.84-19.75 19.75-19.75 10.9 0 19.75 8.84 19.75 19.75z" stroke="#333" fill="#fff"/><path d="M840 199.5v49.3a20.7 20.7 0 0 0 3.2 11.07L880 318m-40-63.2L800 318m0-98.75h80" stroke="#333" fill="none"/><path d="M800 166a6 6 0 0 1 6-6h68a6 6 0 0 1 6 6v168a6 6 0 0 1-6 6h-68a6 6 0 0 1-6-6z" fill="none"/><use xlink:href="#j" transform="matrix(1,0,0,1,720,318) translate(68.85802469135803 17.77777777777778)"/><path d="M857.78 699.75c0 10.9-8.84 19.75-19.75 19.75-10.9 0-19.75-8.84-19.75-19.75 0-10.9 8.85-19.75 19.75-19.75s19.75 8.84 19.75 19.75z" stroke="#333" fill="#fff"/><path d="M838.03 719.5v49.3a20.7 20.7 0 0 0 3.2 11.07l36.8 58.13m-40-63.2l-40 63.2m0-98.75h80" stroke="#333" fill="none"/><path d="M798.03 686a6 6 0 0 1 6-6h68a6 6 0 0 1 6 6v168a6 6 0 0 1-6 6h-68a6 6 0 0 1-6-6z" fill="none"/><use xlink:href="#k" transform="matrix(1,0,0,1,718.0322683878876,838) translate(69.50617283950616 17.77777777777778)"/><use xlink:href="#l" transform="matrix(1,0,0,1,718.0322683878876,838) translate(57.129629629629626 44.44444444444444)"/><path d="M840.94 239.47l243.32 135.95M840.95 239.47l-3.07-1.7" stroke="#3a414a" fill="none"/><path d="M1085.28 375.44l-1.17.44-.1-.06.48-.82zM1300.52 536.95l-.47.82-4.4-2.5.47-.83zm-8.8-5l-.47.8-8.8-5 .46-.82zm-13.2-7.53l-.48.83-8.8-5 .46-.84zm-13.22-7.5l-.47.8-8.8-5 .46-.82zm-13.68-6.7l-.8-.46h1.06zm-39.16-23.37l-.47.82-8.82-5 .47-.83zm-13.2-7.52l-.48.83-8.8-5 .46-.84zm-13.22-7.5l-.47.8-4.4-2.5.47-.82z" stroke="#3a414a" stroke-width=".05" fill="#3a414a"/><path d="M1181.65 469.32l-.47.82-.6-.33.76-.66z" fill="#3a414a"/><path stroke="#3a414a" stroke-width=".05" fill="#3a414a"/><path d="M1301.04 537.8l-20.8.34-.02-.95 19.2-.34-9.54-16.66.83-.47z" stroke="#3a414a" stroke-width=".05" fill="#3a414a"/><use xlink:href="#h" transform="matrix(1,0,0,1,1179.7421316599296,488.4281876018575) translate(0 14.222222222222223)"/><path d="M1461.55 851.7c0 33.13-35.82 60-80 60s-80-26.87-80-60c0-33.15 35.82-60 80-60s80 26.85 80 60z" stroke="#000" fill="#00c2a8"/><use xlink:href="#m" transform="matrix(1,0,0,1,1325.5514204058782,815.6886811322661) translate(28.83950617283951 39.55555555555556)"/><path d="M1200 430c0 33.14-35.82 60-80 60s-80-26.86-80-60 35.82-60 80-60 80 26.86 80 60z" stroke="#000" fill="#ff80df"/><use xlink:href="#n" transform="matrix(1,0,0,1,1064,394) translate(25.92592592592593 28.888888888888886)"/><use xlink:href="#o" transform="matrix(1,0,0,1,1064,394) translate(8.148148148148152 50.22222222222222)"/><path d="M1046.97 726.35L839.03 758.7" stroke="#3a414a" fill="none"/><path d="M1047.46 726.27l.3.43-.73.12-.15-.94.32-.05z" stroke="#3a414a" stroke-width=".05" fill="#3a414a"/><path d="M839.04 758.7l-3.47.54M838.93 759.56l222.15 168.63M838.94 759.57l-2.8-2.13" stroke="#3a414a" fill="none"/><path d="M1061.87 928.2l-.78.6-.32-.24.58-.76z" stroke="#3a414a" stroke-width=".05" fill="#3a414a"/><path d="M1200 970c0 33.14-35.82 60-80 60s-80-26.86-80-60 35.82-60 80-60 80 26.86 80 60z" stroke="#000" fill="#4d9eff"/><use xlink:href="#p" transform="matrix(1,0,0,1,1064,934) translate(14.17283950617285 39.55555555555556)"/><use xlink:href="#c" transform="matrix(1,0,0,1,1064,934) translate(64.34567901234567 39.55555555555556)"/><path d="M1077.1 481.73l-52.4 60.7c-2.1-1.8-5.25-1.57-7.05.53-1.8 2.08-1.57 5.24.52 7.05L855.62 738.38" stroke="#3a414a" fill="none"/><path d="M1077.5 481.4l.37.15-.43.5-.72-.62.26-.3z" stroke="#3a414a" stroke-width=".05" fill="#3a414a"/><path d="M855.63 738.36l-2.3 2.66" stroke="#3a414a" fill="none"/><path d="M1168.86 915.76l-2.4 4.3-.82-.45 2.4-4.3zm7.2-12.92l-4.8 8.62-.83-.47 4.8-8.62zm7.2-12.93l-4.8 8.63-.84-.46 4.8-8.62zm7.18-12.9l-4.8 8.6-.82-.46 4.8-8.6zm7.2-12.94l-4.8 8.62-.83-.46 4.8-8.62zm7.2-12.92l-4.8 8.6-.84-.45 4.8-8.63zm7.18-12.93l-4.8 8.63-.82-.46 4.8-8.62zm7.2-12.92l-4.8 8.62-.83-.46 4.8-8.62zm7.2-12.92l-4.8 8.62-.84-.47 4.8-8.6zm7.18-12.93l-4.8 8.62-.82-.46 4.8-8.63zm7.2-12.92l-4.8 8.63-.83-.47 4.8-8.6zm7.2-12.92l-4.8 8.62-.84-.46 4.8-8.62zm2.4-4.3l-.84-.47 3.62-6.5h1.1zm19.17-34.48l-3.43 6.16h-1.1l3.7-6.62zm7.2-12.92l-4.8 8.62-.83-.47 4.8-8.6zm7.18-12.93l-4.8 8.62-.82-.46 4.8-8.6zm7.2-12.92l-4.8 8.6-.83-.45 4.8-8.6zm7.2-12.93l-4.8 8.62-.83-.46 4.8-8.62zm7.2-12.92l-4.8 8.6-.84-.45 4.8-8.62zm7.18-12.93l-4.8 8.62-.83-.47 4.8-8.6zm7.2-12.93l-4.8 8.62-.83-.46 4.8-8.62zm7.18-12.92l-4.78 8.62-.83-.47 4.78-8.6zm7.2-12.93l-4.8 8.62-.82-.47 4.8-8.62zm7.2-12.92l-4.8 8.6-.83-.45 4.8-8.62zm7.2-12.93l-4.8 8.62-.83-.46 4.8-8.62zm4.8-8.62l-2.4 4.3-.84-.45 2.4-4.3z" stroke="#3a414a" stroke-width=".05" fill="#3a414a"/><path d="M1166.47 920.06l-.24.43-.85-.43.26-.47z" fill="#3a414a"/><path stroke="#3a414a" stroke-width=".05" fill="#3a414a"/><path d="M1354.04 603.82l-.95.02-.5-19.2-16.6 9.7-.47-.82 17.96-10.5z" stroke="#3a414a" stroke-width=".05" fill="#3a414a"/><use xlink:href="#h" transform="matrix(1,0,0,1,1206.3782105350076,740.9625367397863) translate(0 14.222222222222223)"/><path d="M1820 1060c0 33.14-35.82 60-80 60s-80-26.86-80-60 35.82-60 80-60 80 26.86 80 60z" stroke="#000" fill="#9391ff"/><use xlink:href="#q" transform="matrix(1,0,0,1,1684,1024) translate(21.975308641975317 39.55555555555556)"/><use xlink:href="#r" transform="matrix(1,0,0,1,1684,1024) translate(68.39506172839506 39.55555555555556)"/><path d="M1800 360c0 33.14-35.82 60-80 60s-80-26.86-80-60 35.82-60 80-60 80 26.86 80 60z" stroke="#000" fill="#9391ff"/><use xlink:href="#s" transform="matrix(1,0,0,1,1664,324) translate(10.666666666666679 39.55555555555556)"/><use xlink:href="#c" transform="matrix(1,0,0,1,1664,324) translate(67.85185185185185 39.55555555555556)"/><path d="M1820 890.7c0 33.15-35.82 60-80 60s-80-26.85-80-60c0-33.12 35.82-60 80-60s80 26.88 80 60z" stroke="#000" fill="#9391ff"/><use xlink:href="#t" transform="matrix(1,0,0,1,1684,854.7143509714855) translate(23.4567901234568 28.888888888888886)"/><use xlink:href="#u" transform="matrix(1,0,0,1,1684,854.7143509714855) translate(55.061728395061735 28.888888888888886)"/><use xlink:href="#v" transform="matrix(1,0,0,1,1684,854.7143509714855) translate(22.93827160493828 50.22222222222222)"/><path d="M1820 700c0 33.14-35.82 60-80 60s-80-26.86-80-60 35.82-60 80-60 80 26.86 80 60z" stroke="#000" fill="#9391ff"/><use xlink:href="#w" transform="matrix(1,0,0,1,1684,664) translate(19.555555555555564 39.55555555555556)"/><use xlink:href="#c" transform="matrix(1,0,0,1,1684,664) translate(58.96296296296296 39.55555555555556)"/><path d="M1800 535.38c0 33.13-35.82 60-80 60s-80-26.87-80-60c0-33.14 35.82-60 80-60s80 26.86 80 60z" stroke="#000" fill="#9391ff"/><use xlink:href="#x" transform="matrix(1,0,0,1,1664,499.37809799498) translate(3.753086419753103 39.55555555555556)"/><use xlink:href="#c" transform="matrix(1,0,0,1,1664,499.37809799498) translate(74.76543209876543 39.55555555555556)"/><path d="M2019.28 651.13l-224-268.7" stroke="#3a414a" fill="none"/><path d="M2019.93 651.17l-.25.12-.27.74-.5-.6.73-.62zM1795.66 382.13l-.73.6-.2-.23.47-.92z" stroke="#3a414a" stroke-width=".05" fill="#3a414a"/><path d="M2019.02 651.66l-219.98-103" stroke="#3a414a" fill="none"/><path d="M2019.63 651.42l-.32.9-.5-.24.4-.86zM1799.26 548.25l-.4.86-.4-.18.26-.92z" stroke="#3a414a" stroke-width=".05" fill="#3a414a"/><path d="M2019.15 656.25L1811.32 861.8" stroke="#3a414a" fill="none"/><path d="M2019.68 656.36h.02l-.22.23-.67-.68.53-.52zM1811.67 862.13l-.43.43-.55-.8.3-.3z" stroke="#3a414a" stroke-width=".05" fill="#3a414a"/><path d="M2021.72 657.9l-208.94 375.4" stroke="#3a414a" fill="none"/><path d="M2022.13 658.13l-.83-.46.24-.42.43.2.74-.35zM1813.2 1033.5l-.38.7-.28-.47-.3-.44.13-.25z" stroke="#3a414a" stroke-width=".05" fill="#3a414a"/><path d="M2018.27 653.9l-199.13 33.14" stroke="#3a414a" fill="none"/><path d="M2018.76 653.83l.17.45-.6.1-.15-.94.77-.13zM1819.23 687.5l-.44.08-.3-.92.58-.1z" stroke="#3a414a" stroke-width=".05" fill="#3a414a"/><path d="M2024.64 653.83c0 1.7-1.2 3.07-2.67 3.07-1.48 0-2.67-1.38-2.67-3.07 0-1.7 1.2-3.07 2.67-3.07s2.67 1.37 2.67 3.07z" stroke="#333"/><path d="M1460 200c0 33.14-35.82 60-80 60s-80-26.86-80-60 35.82-60 80-60 80 26.86 80 60z" stroke="#000" fill="#00c2a8"/><use xlink:href="#y" transform="matrix(1,0,0,1,1324,164) translate(29.382716049382722 28.888888888888886)"/><use xlink:href="#z" transform="matrix(1,0,0,1,1324,164) translate(24.88888888888889 50.22222222222222)"/><path d="M1380.47 464.44h-.94v-4.85h.94zm0-9.7h-.94v-9.68h.94zm0-14.52h-.94v-9.7h.94zm0-14.53h-.94V416h.94zm0-14.55h-.94v-9.68h.94zm0-14.53h-.94v-9.68h.94zm0-14.53h-.94v-8.5h.94zm0-29.84h-.94v-8.92h.94zm0-13.76h-.94v-9.7h.94zm0-14.53h-.94v-9.7h.94zm0-14.53h-.94v-9.7h.94zm0-14.53h-.94v-9.68h.94zm0-14.52h-.94v-9.7h.94zm0-14.54h-.94V261h.94z" stroke="#3a414a" stroke-width=".05" fill="#3a414a"/><path d="M1380 260.5h.47v.5h-.94v-.5z" fill="#3a414a"/><path stroke="#3a414a" stroke-width=".05" fill="#3a414a"/><path d="M1390.6 447.4l-10.6 17.9-10.6-17.9.83-.5 9.77 16.53 9.77-16.53z" stroke="#3a414a" stroke-width=".05" fill="#3a414a"/><use xlink:href="#A" transform="matrix(1,0,0,1,1328.148148148148,352.25550361639984) translate(0 14.222222222222223)"/><path d="M1432.37 473.22l-3.18 3.82-.74-.6 3.18-3.83zm9.56-11.45l-6.37 7.63-.73-.6 6.37-7.64zm9.55-11.45l-6.37 7.63-.72-.6 6.37-7.64zm9.55-11.45l-6.37 7.63-.73-.6 6.38-7.64zm9.56-11.45l-6.38 7.63-.73-.6 6.36-7.64zm9.54-11.46l-6.37 7.64-.73-.6 6.37-7.64zm9.56-11.45l-6.37 7.65-.73-.6 6.37-7.65zm9.55-11.44l-6.37 7.64-.73-.6 6.37-7.65zm9.56-11.45l-6.36 7.65-.73-.6 6.38-7.65zm9.56-11.44l-6.37 7.63-.74-.6 6.37-7.65zm9.55-11.45l-6.36 7.64-.72-.6 6.37-7.64zm28.68-34.34l-6.37 7.63-.72-.62 6.37-7.63zm9.55-11.46l-6.37 7.64-.73-.6 6.37-7.64zm9.56-11.45l-6.38 7.64-.73-.62 6.36-7.63zm9.54-11.45l-6.37 7.64-.73-.6 6.37-7.65zm9.55-11.45l-6.38 7.63-.73-.6 6.37-7.64zm9.55-11.45l-6.37 7.63-.73-.6 6.37-7.64zm9.55-11.45l-6.37 7.63-.73-.6 6.37-7.64zm9.56-11.45l-6.37 7.63-.74-.6 6.37-7.64zm9.55-11.45l-6.36 7.63-.73-.6 6.38-7.64zm9.57-11.45l-6.37 7.63-.73-.6 6.37-7.64zm6.37-7.64l-3.2 3.82-.72-.6 3.2-3.83z" stroke="#3a414a" stroke-width=".05" fill="#3a414a"/><path d="M1649.17 213.38l-.24.3-.73-.62.4-.5z" fill="#3a414a"/><path stroke="#3a414a" stroke-width=".05" fill="#3a414a"/><path d="M1432.55 457l-3.08 18.96 18.1-6.43.3.9-19.6 6.96 3.34-20.54z" stroke="#3a414a" stroke-width=".05" fill="#3a414a"/><use xlink:href="#h" transform="matrix(1,0,0,1,1485.2810682827158,334.5356754275415) translate(0 14.222222222222223)"/><path d="M1659.6 890.03l-.77.54-2.84-4.12.78-.54zm-5.66-8.24l-.78.52-5.66-8.24.78-.54zm-8.5-12.38l-.78.53-5.66-8.24.78-.53zm-8.5-12.38l-.77.54-5.67-8.24.8-.54zm-8.5-12.37l-.77.54-5.66-8.23.8-.54zm-8.48-12.37l-.8.54-5.65-8.25.8-.54zm-8.5-12.37l-.78.54-5.66-8.25.78-.53zm-8.5-12.37l-.78.54-5.66-8.25.78-.53zm-8.5-12.37l-.77.53-5.68-8.25.8-.53zm-8.5-12.38l-.77.54-5.67-8.25.78-.52zm-8.48-12.37l-.8.54-5.65-8.26.78-.53zm-8.5-12.37l-.78.54-5.67-8.25.8-.53zm-8.5-12.37l-.78.55-4.3-6.27h1.15zm-18.58-27.05h-1.16l-3.7-5.4.8-.53zm-6.9-10.05l-.8.54-5.65-8.25.78-.55zm-8.5-12.37l-.8.54-5.65-8.25.78-.54zm-8.5-12.37l-.78.54-5.67-8.25.8-.54zm-8.5-12.37l-.78.53-5.66-8.25.78-.54zm-8.5-12.38l-.78.54-5.66-8.25.78-.53zm-8.5-12.37l-.77.53-5.66-8.24.78-.54zm-8.48-12.37l-.8.53-5.65-8.23.78-.54zm-8.5-12.37l-.78.54-5.67-8.24.8-.54zm-8.5-12.36l-.78.53-5.66-8.24.78-.54zm-8.5-12.38l-.78.54-5.66-8.24.78-.54zm-8.5-12.37l-.77.53-5.67-8.24.8-.55zm-8.5-12.38l-.77.54-2.83-4.12.78-.54z" stroke="#3a414a" stroke-width=".05" fill="#3a414a"/><path d="M1659.5 890.7v.4l.02.48-.7-1.02.7-.48z" fill="#3a414a"/><path stroke="#3a414a" stroke-width=".05" fill="#3a414a"/><path d="M1456.7 576.73l-.4.86-17.42-8.1 1.3 19.15-.95.07-1.4-20.76z" stroke="#3a414a" stroke-width=".05" fill="#3a414a"/><use xlink:href="#h" transform="matrix(1,0,0,1,1495.363522874581,718.6507991007906) translate(0 14.222222222222223)"/><path d="M1640.3 545.36l-.12.95-4.96-.54.1-.95zm-9.95-1.1l-.1.94-9.94-1.1.12-.95zm-14.9-1.66l-.1.94-9.94-1.1.12-.95zm-119.22-13.26l-.1.94-9.94-1.1.1-.94zm-14.9-1.66l-.1.95-9.94-1.1.1-.95zm-14.9-1.65l-.1.94-4.98-.55.1-.95z" stroke="#3a414a" stroke-width=".05" fill="#3a414a"/><path d="M1640.62 545.4l.23.98-.68-.07.1-.94z" fill="#3a414a"/><path stroke="#3a414a" stroke-width=".05" fill="#3a414a"/><path d="M1479.9 518.17l-17.5 7.9 15.35 11.52-.58.75-16.62-12.5 18.97-8.55z" stroke="#3a414a" stroke-width=".05" fill="#3a414a"/><use xlink:href="#h" transform="matrix(1,0,0,1,1497.3327515096612,525.200710509377) translate(0 14.222222222222223)"/><path d="M1462.77 506.84l-4.15 2.8-.53-.77 4.13-2.82zm12.42-8.45l-8.3 5.62-.53-.78 8.3-5.63zm12.42-8.45l-8.28 5.63-.54-.8 8.3-5.62zm12.43-8.44l-8.3 5.63-.52-.78 8.28-5.63zm12.42-8.44l-8.28 5.63-.55-.8 8.3-5.63zm12.43-8.44l-8.28 5.63-.54-.8 8.3-5.62zm4.14-2.82l-.53-.8 6.35-4.3h1.7zm45.57-30.96l-6.67 4.54h-1.7l7.85-5.33zm12.44-8.45l-8.3 5.62-.52-.78 8.28-5.63zm12.42-8.45l-8.28 5.63-.54-.8 8.3-5.62zm12.43-8.44l-8.3 5.63-.53-.78 8.3-5.63zm12.42-8.44l-8.3 5.63-.52-.8 8.28-5.63zm12.42-8.44l-8.28 5.63-.54-.8 8.3-5.62zm8.3-5.63l-4.15 2.8-.55-.78 4.14-2.82z" stroke="#3a414a" stroke-width=".05" fill="#3a414a"/><path d="M1645.4 382.74l-.38.25-.54-.8.47-.3z" fill="#3a414a"/><path stroke="#3a414a" stroke-width=".05" fill="#3a414a"/><path d="M1467.36 491.32l-8.17 17.37 19.15-1.2.06.94-20.76 1.3 8.86-18.82z" stroke="#3a414a" stroke-width=".05" fill="#3a414a"/><use xlink:href="#h" transform="matrix(1,0,0,1,1498.1056526942564,435.3750297604807) translate(0 14.222222222222223)"/><path d="M1672.1 666.6l-.43.87-4.36-2.15.43-.85zm-8.73-4.28l-.42.85-8.7-4.3.4-.84zm-13.07-6.44l-.42.86-8.72-4.3.42-.85zm-13.07-6.43l-.42.85-8.7-4.3.4-.84zm-13.07-6.44l-.42.86-8.72-4.3.42-.84zm-13.08-6.43l-.4.86-8.73-4.3.42-.85zm-13.07-6.43l-.4.85-8.72-4.3.42-.86zm-13.06-6.44l-.42.85-3.35-1.65h2.15zM1540 601.57h-2.15l-1.26-.62.4-.85zm-7.35-3.62l-.42.85-8.7-4.3.4-.84zm-13.07-6.44l-.42.87-8.7-4.3.4-.85zm-13.07-6.42l-.4.85-8.72-4.3.42-.85zm-13.06-6.44l-.42.85-8.7-4.3.4-.85zm-13.07-6.44l-.42.85-8.72-4.3.42-.84zm-13.07-6.44l-.42.86-8.72-4.3.42-.85zm-13.07-6.43l-.42.85-4.35-2.15.42-.85z" stroke="#3a414a" stroke-width=".05" fill="#3a414a"/><path d="M1672.65 666.9l-.65.73-.35-.17.42-.85z" fill="#3a414a"/><path stroke="#3a414a" stroke-width=".05" fill="#3a414a"/><path d="M1469.7 556.6l-19.14 1.45 10.5 16.07-.8.52-11.37-17.4 20.73-1.6z" stroke="#3a414a" stroke-width=".05" fill="#3a414a"/><g><use xlink:href="#h" transform="matrix(1,0,0,1,1507.2994060765607,601.5665880828413) translate(0 14.222222222222223)"/></g><path d="M1659.7 1059.34l-.85.43-2.26-4.43.84-.43zm-4.52-8.86l-.85.43-4.52-8.85.86-.43zm-6.78-13.3l-.85.44-4.5-8.86.83-.43zm-6.78-13.28l-.84.43-4.52-8.86.85-.43zm-6.77-13.3l-.85.44-4.52-8.86.85-.43zm-6.78-13.28l-.85.43-4.52-8.86.85-.44zm-6.78-13.3l-.85.45-4.52-8.86.85-.43zm-6.78-13.27l-.85.43-4.52-8.86.85-.43zm-6.78-13.3l-.85.44-4.53-8.87.85-.43zm-6.78-13.28l-.85.43-4.5-8.86.84-.43zm-6.78-13.3l-.84.44-4.52-8.85.85-.43zm-6.77-13.28l-.84.42-4.52-8.86.85-.43zm-6.77-13.3l-.85.43-4.5-8.86.83-.43zm-6.78-13.3l-.84.44-4.5-8.86.84-.43zm-6.77-13.28l-.85.43-4.52-8.86.86-.44zm-6.78-13.3l-.85.44-4.52-8.86.85-.43zm-6.78-13.28l-.84.44-4.52-8.86.84-.44zm-6.78-13.28l-.84.43-3.8-7.46h1.07zm-14.45-28.36h-1.08l-3.4-6.65.85-.43zm-5.9-11.5l-.83.42-4.52-8.86.85-.43zm-6.76-13.3l-.85.43-4.53-8.86.85-.43zm-6.78-13.3l-.85.44-4.5-8.86.84-.43zm-6.78-13.28l-.84.43-4.52-8.86.85-.44zm-6.77-13.3l-.84.44-2.7-5.28h1.07zm-3.94-7.72v2.1l-1.42-2.8.85-.43zm-2.83-5.56l-.85.43-4.52-8.86.85-.42zm-6.78-13.3l-.85.44-4.5-8.85.83-.44zm-6.78-13.28l-.84.44-4.52-8.86.86-.43zm-6.77-13.3l-.85.45-4.52-8.85.85-.43zm-6.78-13.27l-.85.42-4.5-8.86.83-.43zm-6.78-13.3l-.84.43-4.52-8.86.85-.43zm-6.77-13.3l-.85.44-4.52-8.86.85-.43zm-6.78-13.28l-.86.43-4.52-8.86.85-.44zm-6.8-13.3l-.83.44-4.52-8.86.84-.43zm-6.76-13.28l-.85.43-4.53-8.86.85-.42zm-6.78-13.3l-.85.44-4.5-8.86.84-.43zm-6.78-13.28l-.85.43-2.25-4.44.84-.43z" stroke="#3a414a" stroke-width=".05" fill="#3a414a"/><path d="M1659.5 1060v.4l.03.7-.7-1.34.7-.35z" fill="#3a414a"/><path stroke="#3a414a" stroke-width=".05" fill="#3a414a"/><path d="M1432.48 591.52l-.5.8-16.22-10.28-1.2 19.16-.95-.06 1.3-20.76z" stroke="#3a414a" stroke-width=".05" fill="#3a414a"/><g><use xlink:href="#h" transform="matrix(1,0,0,1,1483.9090527695773,809.5027279552392) translate(0 14.222222222222223)"/></g><path d="M1381.74 790.7h-.95l-.04-4.85h.95zm-.05-9.7h-.96l-.05-9.68h.94zm-.08-14.53h-.95l-.05-9.68.96-.02zm-.07-14.53h-.95l-.04-9.7h.95zm-.07-14.53h-.95l-.04-9.68h.94zm-.07-14.52h-.94l-.04-9.7h.95zm-.06-14.54h-.95l-.05-8.9h.95zm-.14-30.24h-.95l-.04-8.5h.96zm-.06-13.35h-.95l-.06-9.68h.95zm-.07-14.53h-.95l-.05-9.68h.95zm-.07-14.53h-.95l-.05-9.7h.95zm-.07-14.54h-.95l-.05-9.7h.95zm-.07-14.53h-.95l-.04-9.7h.95zm-.07-14.54h-.96l-.02-4.85h.95z" stroke="#3a414a" stroke-width=".05" fill="#3a414a"/><path d="M1381.74 791.2h-.95v-.52h.94z" fill="#3a414a"/><path stroke="#3a414a" stroke-width=".05" fill="#3a414a"/><path d="M1390.96 604.25l-.8.5-9.86-16.5-9.7 16.58-.82-.48 10.5-17.96z" stroke="#3a414a" stroke-width=".05" fill="#3a414a"/><g><use xlink:href="#A" transform="matrix(1,0,0,1,1328.9238583510871,678.0998441825329) translate(0 14.222222222222223)"/></g><defs><path fill="#3a414a" d="M185-189c-5-48-123-54-124 2 14 75 158 14 163 119 3 78-121 87-175 55-17-10-28-26-33-46l33-7c5 56 141 63 141-1 0-78-155-14-162-118-5-82 145-84 179-34 5 7 8 16 11 25" id="B"/><path fill="#3a414a" d="M179-190L93 31C79 59 56 82 12 73V49c39 6 53-20 64-50L1-190h34L92-34l54-156h33" id="C"/><path fill="#3a414a" d="M135-143c-3-34-86-38-87 0 15 53 115 12 119 90S17 21 10-45l28-5c4 36 97 45 98 0-10-56-113-15-118-90-4-57 82-63 122-42 12 7 21 19 24 35" id="D"/><path fill="#3a414a" d="M59-47c-2 24 18 29 38 22v24C64 9 27 4 27-40v-127H5v-23h24l9-43h21v43h35v23H59v120" id="E"/><path fill="#3a414a" d="M100-194c63 0 86 42 84 106H49c0 40 14 67 53 68 26 1 43-12 49-29l28 8c-11 28-37 45-77 45C44 4 14-33 15-96c1-61 26-98 85-98zm52 81c6-60-76-77-97-28-3 7-6 17-6 28h103" id="F"/><path fill="#3a414a" d="M210-169c-67 3-38 105-44 169h-31v-121c0-29-5-50-35-48C34-165 62-65 56 0H25l-1-190h30c1 10-1 24 2 32 10-44 99-50 107 0 11-21 27-35 58-36 85-2 47 119 55 194h-31v-121c0-29-5-49-35-48" id="G"/><g id="a"><use transform="matrix(0.06234567901234565,0,0,0.06234567901234565,0,0)" xlink:href="#B"/><use transform="matrix(0.06234567901234565,0,0,0.06234567901234565,14.962962962962957,0)" xlink:href="#C"/><use transform="matrix(0.06234567901234565,0,0,0.06234567901234565,26.185185185185176,0)" xlink:href="#D"/><use transform="matrix(0.06234567901234565,0,0,0.06234567901234565,37.40740740740739,0)" xlink:href="#E"/><use transform="matrix(0.06234567901234565,0,0,0.06234567901234565,43.64197530864195,0)" xlink:href="#F"/><use transform="matrix(0.06234567901234565,0,0,0.06234567901234565,56.111111111111086,0)" xlink:href="#G"/></g><path fill="#3a414a" d="M30-248c87 1 191-15 191 75 0 78-77 80-158 76V0H30v-248zm33 125c57 0 124 11 124-50 0-59-68-47-124-48v98" id="H"/><path fill="#3a414a" d="M84 4C-5 8 30-112 23-190h32v120c0 31 7 50 39 49 72-2 45-101 50-169h31l1 190h-30c-1-10 1-25-2-33-11 22-28 36-60 37" id="I"/><path fill="#3a414a" d="M114-163C36-179 61-72 57 0H25l-1-190h30c1 12-1 29 2 39 6-27 23-49 58-41v29" id="J"/><path fill="#3a414a" d="M96-169c-40 0-48 33-48 73s9 75 48 75c24 0 41-14 43-38l32 2c-6 37-31 61-74 61-59 0-76-41-82-99-10-93 101-131 147-64 4 7 5 14 7 22l-32 3c-4-21-16-35-41-35" id="K"/><path fill="#3a414a" d="M106-169C34-169 62-67 57 0H25v-261h32l-1 103c12-21 28-36 61-36 89 0 53 116 60 194h-32v-121c2-32-8-49-39-48" id="L"/><path fill="#3a414a" d="M141-36C126-15 110 5 73 4 37 3 15-17 15-53c-1-64 63-63 125-63 3-35-9-54-41-54-24 1-41 7-42 31l-33-3c5-37 33-52 76-52 45 0 72 20 72 64v82c-1 20 7 32 28 27v20c-31 9-61-2-59-35zM48-53c0 20 12 33 32 33 41-3 63-29 60-74-43 2-92-5-92 41" id="M"/><g id="b"><use transform="matrix(0.049382716049382706,0,0,0.049382716049382706,0,0)" xlink:href="#H"/><use transform="matrix(0.049382716049382706,0,0,0.049382716049382706,11.85185185185185,0)" xlink:href="#I"/><use transform="matrix(0.049382716049382706,0,0,0.049382716049382706,21.728395061728392,0)" xlink:href="#J"/><use transform="matrix(0.049382716049382706,0,0,0.049382716049382706,27.604938271604933,0)" xlink:href="#K"/><use transform="matrix(0.049382716049382706,0,0,0.049382716049382706,36.49382716049382,0)" xlink:href="#L"/><use transform="matrix(0.049382716049382706,0,0,0.049382716049382706,46.37037037037037,0)" xlink:href="#M"/><use transform="matrix(0.049382716049382706,0,0,0.049382716049382706,56.24691358024691,0)" xlink:href="#D"/><use transform="matrix(0.049382716049382706,0,0,0.049382716049382706,65.1358024691358,0)" xlink:href="#F"/></g><path fill="#3a414a" d="M24-231v-30h32v30H24zM24 0v-190h32V0H24" id="N"/><g id="c"><use transform="matrix(0.049382716049382706,0,0,0.049382716049382706,0,0)" xlink:href="#N"/><use transform="matrix(0.049382716049382706,0,0,0.049382716049382706,3.9012345679012337,0)" xlink:href="#E"/><use transform="matrix(0.049382716049382706,0,0,0.049382716049382706,8.839506172839505,0)" xlink:href="#F"/><use transform="matrix(0.049382716049382706,0,0,0.049382716049382706,18.716049382716044,0)" xlink:href="#G"/></g><path fill="#3a414a" d="M115-194c53 0 69 39 70 98 0 66-23 100-70 100C84 3 66-7 56-30L54 0H23l1-261h32v101c10-23 28-34 59-34zm-8 174c40 0 45-34 45-75 0-40-5-75-45-74-42 0-51 32-51 76 0 43 10 73 51 73" id="O"/><g id="d"><use transform="matrix(0.049382716049382706,0,0,0.049382716049382706,0,0)" xlink:href="#B"/><use transform="matrix(0.049382716049382706,0,0,0.049382716049382706,11.85185185185185,0)" xlink:href="#I"/><use transform="matrix(0.049382716049382706,0,0,0.049382716049382706,21.728395061728392,0)" xlink:href="#O"/><use transform="matrix(0.049382716049382706,0,0,0.049382716049382706,31.604938271604933,0)" xlink:href="#D"/><use transform="matrix(0.049382716049382706,0,0,0.049382716049382706,40.49382716049382,0)" xlink:href="#K"/><use transform="matrix(0.049382716049382706,0,0,0.049382716049382706,49.38271604938271,0)" xlink:href="#J"/><use transform="matrix(0.049382716049382706,0,0,0.049382716049382706,55.259259259259245,0)" xlink:href="#N"/><use transform="matrix(0.049382716049382706,0,0,0.049382716049382706,59.16049382716048,0)" xlink:href="#O"/><use transform="matrix(0.049382716049382706,0,0,0.049382716049382706,69.03703703703702,0)" xlink:href="#F"/></g><path fill="#3a414a" d="M100-194c62-1 85 37 85 99 1 63-27 99-86 99S16-35 15-95c0-66 28-99 85-99zM99-20c44 1 53-31 53-75 0-43-8-75-51-75s-53 32-53 75 10 74 51 75" id="P"/><g id="e"><use transform="matrix(0.049382716049382706,0,0,0.049382716049382706,0,0)" xlink:href="#E"/><use transform="matrix(0.049382716049382706,0,0,0.049382716049382706,4.93827160493827,0)" xlink:href="#P"/></g><path fill="#3a414a" d="M205 0l-28-72H64L36 0H1l101-248h38L239 0h-34zm-38-99l-47-123c-12 45-31 82-46 123h93" id="Q"/><path fill="#3a414a" d="M85-194c31 0 48 13 60 33l-1-100h32l1 261h-30c-2-10 0-23-3-31C134-8 116 4 85 4 32 4 16-35 15-94c0-66 23-100 70-100zm9 24c-40 0-46 34-46 75 0 40 6 74 45 74 42 0 51-32 51-76 0-42-9-74-50-73" id="R"/><g id="f"><use transform="matrix(0.049382716049382706,0,0,0.049382716049382706,0,0)" xlink:href="#Q"/><use transform="matrix(0.049382716049382706,0,0,0.049382716049382706,11.85185185185185,0)" xlink:href="#R"/><use transform="matrix(0.049382716049382706,0,0,0.049382716049382706,21.728395061728392,0)" xlink:href="#R"/></g><path fill="#3a414a" d="M30 0v-248h33v221h125V0H30" id="S"/><path fill="#3a414a" d="M177-190C167-65 218 103 67 71c-23-6-38-20-44-43l32-5c15 47 100 32 89-28v-30C133-14 115 1 83 1 29 1 15-40 15-95c0-56 16-97 71-98 29-1 48 16 59 35 1-10 0-23 2-32h30zM94-22c36 0 50-32 50-73 0-42-14-75-50-75-39 0-46 34-46 75s6 73 46 73" id="T"/><path fill="#3a414a" d="M117-194c89-4 53 116 60 194h-32v-121c0-31-8-49-39-48C34-167 62-67 57 0H25l-1-190h30c1 10-1 24 2 32 11-22 29-35 61-36" id="U"/><g id="g"><use transform="matrix(0.049382716049382706,0,0,0.049382716049382706,0,0)" xlink:href="#S"/><use transform="matrix(0.049382716049382706,0,0,0.049382716049382706,9.87654320987654,0)" xlink:href="#P"/><use transform="matrix(0.049382716049382706,0,0,0.049382716049382706,19.75308641975308,0)" xlink:href="#T"/><use transform="matrix(0.049382716049382706,0,0,0.049382716049382706,29.629629629629623,0)" xlink:href="#N"/><use transform="matrix(0.049382716049382706,0,0,0.049382716049382706,33.53086419753085,0)" xlink:href="#U"/></g><path fill="#333" d="M18-100v-36l175-74v27L42-118l151 64v27" id="V"/><path fill="#333" d="M24-231v-30h32v30H24zM24 0v-190h32V0H24" id="W"/><path fill="#333" d="M117-194c89-4 53 116 60 194h-32v-121c0-31-8-49-39-48C34-167 62-67 57 0H25l-1-190h30c1 10-1 24 2 32 11-22 29-35 61-36" id="X"/><path fill="#333" d="M96-169c-40 0-48 33-48 73s9 75 48 75c24 0 41-14 43-38l32 2c-6 37-31 61-74 61-59 0-76-41-82-99-10-93 101-131 147-64 4 7 5 14 7 22l-32 3c-4-21-16-35-41-35" id="Y"/><path fill="#333" d="M24 0v-261h32V0H24" id="Z"/><path fill="#333" d="M84 4C-5 8 30-112 23-190h32v120c0 31 7 50 39 49 72-2 45-101 50-169h31l1 190h-30c-1-10 1-25-2-33-11 22-28 36-60 37" id="aa"/><path fill="#333" d="M85-194c31 0 48 13 60 33l-1-100h32l1 261h-30c-2-10 0-23-3-31C134-8 116 4 85 4 32 4 16-35 15-94c0-66 23-100 70-100zm9 24c-40 0-46 34-46 75 0 40 6 74 45 74 42 0 51-32 51-76 0-42-9-74-50-73" id="ab"/><path fill="#333" d="M100-194c63 0 86 42 84 106H49c0 40 14 67 53 68 26 1 43-12 49-29l28 8c-11 28-37 45-77 45C44 4 14-33 15-96c1-61 26-98 85-98zm52 81c6-60-76-77-97-28-3 7-6 17-6 28h103" id="ac"/><path fill="#333" d="M135-143c-3-34-86-38-87 0 15 53 115 12 119 90S17 21 10-45l28-5c4 36 97 45 98 0-10-56-113-15-118-90-4-57 82-63 122-42 12 7 21 19 24 35" id="ad"/><path fill="#333" d="M18-27v-27l151-64-151-65v-27l175 74v36" id="ae"/><g id="h"><use transform="matrix(0.04938271604938272,0,0,0.04938271604938272,0,0)" xlink:href="#V"/><use transform="matrix(0.04938271604938272,0,0,0.04938271604938272,10.370370370370372,0)" xlink:href="#V"/><use transform="matrix(0.04938271604938272,0,0,0.04938271604938272,20.740740740740744,0)" xlink:href="#W"/><use transform="matrix(0.04938271604938272,0,0,0.04938271604938272,24.641975308641978,0)" xlink:href="#X"/><use transform="matrix(0.04938271604938272,0,0,0.04938271604938272,34.51851851851852,0)" xlink:href="#Y"/><use transform="matrix(0.04938271604938272,0,0,0.04938271604938272,43.407407407407405,0)" xlink:href="#Z"/><use transform="matrix(0.04938271604938272,0,0,0.04938271604938272,47.30864197530864,0)" xlink:href="#aa"/><use transform="matrix(0.04938271604938272,0,0,0.04938271604938272,57.185185185185176,0)" xlink:href="#ab"/><use transform="matrix(0.04938271604938272,0,0,0.04938271604938272,67.06172839506172,0)" xlink:href="#ac"/><use transform="matrix(0.04938271604938272,0,0,0.04938271604938272,76.93827160493827,0)" xlink:href="#ad"/><use transform="matrix(0.04938271604938272,0,0,0.04938271604938272,85.82716049382715,0)" xlink:href="#ae"/><use transform="matrix(0.04938271604938272,0,0,0.04938271604938272,96.19753086419752,0)" xlink:href="#ae"/></g><path fill="#3a414a" d="M233-177c-1 41-23 64-60 70L243 0h-38l-65-103H63V0H30v-248c88 3 205-21 203 71zM63-129c60-2 137 13 137-47 0-61-80-42-137-45v92" id="af"/><path fill="#3a414a" d="M24 0v-261h32V0H24" id="ag"/><g id="i"><use transform="matrix(0.06172839506172839,0,0,0.06172839506172839,0,0)" xlink:href="#af"/><use transform="matrix(0.06172839506172839,0,0,0.06172839506172839,15.987654320987653,0)" xlink:href="#F"/><use transform="matrix(0.06172839506172839,0,0,0.06172839506172839,28.333333333333332,0)" xlink:href="#E"/><use transform="matrix(0.06172839506172839,0,0,0.06172839506172839,34.50617283950617,0)" xlink:href="#M"/><use transform="matrix(0.06172839506172839,0,0,0.06172839506172839,46.85185185185185,0)" xlink:href="#N"/><use transform="matrix(0.06172839506172839,0,0,0.06172839506172839,51.72839506172839,0)" xlink:href="#ag"/><use transform="matrix(0.06172839506172839,0,0,0.06172839506172839,56.60493827160494,0)" xlink:href="#F"/><use transform="matrix(0.06172839506172839,0,0,0.06172839506172839,68.95061728395062,0)" xlink:href="#J"/></g><path fill="#3a414a" d="M212-179c-10-28-35-45-73-45-59 0-87 40-87 99 0 60 29 101 89 101 43 0 62-24 78-52l27 14C228-24 195 4 139 4 59 4 22-46 18-125c-6-104 99-153 187-111 19 9 31 26 39 46" id="ah"/><g id="j"><use transform="matrix(0.06172839506172839,0,0,0.06172839506172839,0,0)" xlink:href="#ah"/><use transform="matrix(0.06172839506172839,0,0,0.06172839506172839,15.987654320987653,0)" xlink:href="#P"/><use transform="matrix(0.06172839506172839,0,0,0.06172839506172839,28.333333333333332,0)" xlink:href="#U"/><use transform="matrix(0.06172839506172839,0,0,0.06172839506172839,40.67901234567901,0)" xlink:href="#D"/><use transform="matrix(0.06172839506172839,0,0,0.06172839506172839,51.79012345679013,0)" xlink:href="#I"/><use transform="matrix(0.06172839506172839,0,0,0.06172839506172839,64.13580246913581,0)" xlink:href="#G"/><use transform="matrix(0.06172839506172839,0,0,0.06172839506172839,82.5925925925926,0)" xlink:href="#F"/><use transform="matrix(0.06172839506172839,0,0,0.06172839506172839,94.93827160493828,0)" xlink:href="#J"/></g><g id="k"><use transform="matrix(0.06172839506172839,0,0,0.06172839506172839,0,0)" xlink:href="#ah"/><use transform="matrix(0.06172839506172839,0,0,0.06172839506172839,15.987654320987653,0)" xlink:href="#L"/><use transform="matrix(0.06172839506172839,0,0,0.06172839506172839,28.333333333333332,0)" xlink:href="#M"/><use transform="matrix(0.06172839506172839,0,0,0.06172839506172839,40.67901234567901,0)" xlink:href="#J"/><use transform="matrix(0.06172839506172839,0,0,0.06172839506172839,48.02469135802469,0)" xlink:href="#N"/><use transform="matrix(0.06172839506172839,0,0,0.06172839506172839,52.901234567901234,0)" xlink:href="#E"/><use transform="matrix(0.06172839506172839,0,0,0.06172839506172839,59.074074074074076,0)" xlink:href="#M"/><use transform="matrix(0.06172839506172839,0,0,0.06172839506172839,71.41975308641976,0)" xlink:href="#O"/><use transform="matrix(0.06172839506172839,0,0,0.06172839506172839,83.76543209876544,0)" xlink:href="#ag"/><use transform="matrix(0.06172839506172839,0,0,0.06172839506172839,88.64197530864199,0)" xlink:href="#F"/></g><path fill="#3a414a" d="M140-251c81 0 123 46 123 126C263-46 219 4 140 4 59 4 17-45 17-125s42-126 123-126zm0 227c63 0 89-41 89-101s-29-99-89-99c-61 0-89 39-89 99S79-25 140-24" id="ai"/><path fill="#3a414a" d="M9 0v-24l116-142H16v-24h144v24L44-24h123V0H9" id="aj"/><g id="l"><use transform="matrix(0.06172839506172839,0,0,0.06172839506172839,0,0)" xlink:href="#ai"/><use transform="matrix(0.06172839506172839,0,0,0.06172839506172839,17.28395061728395,0)" xlink:href="#J"/><use transform="matrix(0.06172839506172839,0,0,0.06172839506172839,24.629629629629626,0)" xlink:href="#T"/><use transform="matrix(0.06172839506172839,0,0,0.06172839506172839,36.9753086419753,0)" xlink:href="#M"/><use transform="matrix(0.06172839506172839,0,0,0.06172839506172839,49.32098765432098,0)" xlink:href="#U"/><use transform="matrix(0.06172839506172839,0,0,0.06172839506172839,61.66666666666666,0)" xlink:href="#N"/><use transform="matrix(0.06172839506172839,0,0,0.06172839506172839,66.5432098765432,0)" xlink:href="#aj"/><use transform="matrix(0.06172839506172839,0,0,0.06172839506172839,77.65432098765432,0)" xlink:href="#M"/><use transform="matrix(0.06172839506172839,0,0,0.06172839506172839,90,0)" xlink:href="#E"/><use transform="matrix(0.06172839506172839,0,0,0.06172839506172839,96.17283950617283,0)" xlink:href="#N"/><use transform="matrix(0.06172839506172839,0,0,0.06172839506172839,101.04938271604938,0)" xlink:href="#P"/><use transform="matrix(0.06172839506172839,0,0,0.06172839506172839,113.39506172839506,0)" xlink:href="#U"/></g><g id="m"><use transform="matrix(0.049382716049382706,0,0,0.049382716049382706,0,0)" xlink:href="#S"/><use transform="matrix(0.049382716049382706,0,0,0.049382716049382706,9.87654320987654,0)" xlink:href="#P"/><use transform="matrix(0.049382716049382706,0,0,0.049382716049382706,19.75308641975308,0)" xlink:href="#T"/><use transform="matrix(0.049382716049382706,0,0,0.049382716049382706,29.629629629629623,0)" xlink:href="#P"/><use transform="matrix(0.049382716049382706,0,0,0.049382716049382706,39.50617283950616,0)" xlink:href="#I"/><use transform="matrix(0.049382716049382706,0,0,0.049382716049382706,49.38271604938271,0)" xlink:href="#E"/></g><g id="n"><use transform="matrix(0.049382716049382706,0,0,0.049382716049382706,0,0)" xlink:href="#ah"/><use transform="matrix(0.049382716049382706,0,0,0.049382716049382706,12.790123456790122,0)" xlink:href="#P"/><use transform="matrix(0.049382716049382706,0,0,0.049382716049382706,22.666666666666664,0)" xlink:href="#U"/><use transform="matrix(0.049382716049382706,0,0,0.049382716049382706,32.5432098765432,0)" xlink:href="#D"/><use transform="matrix(0.049382716049382706,0,0,0.049382716049382706,41.43209876543209,0)" xlink:href="#I"/><use transform="matrix(0.049382716049382706,0,0,0.049382716049382706,51.30864197530863,0)" xlink:href="#ag"/><use transform="matrix(0.049382716049382706,0,0,0.049382716049382706,55.209876543209866,0)" xlink:href="#E"/></g><g id="o"><use transform="matrix(0.049382716049382706,0,0,0.049382716049382706,0,0)" xlink:href="#E"/><use transform="matrix(0.049382716049382706,0,0,0.049382716049382706,4.93827160493827,0)" xlink:href="#J"/><use transform="matrix(0.049382716049382706,0,0,0.049382716049382706,10.814814814814813,0)" xlink:href="#M"/><use transform="matrix(0.049382716049382706,0,0,0.049382716049382706,20.691358024691354,0)" xlink:href="#U"/><use transform="matrix(0.049382716049382706,0,0,0.049382716049382706,30.567901234567895,0)" xlink:href="#D"/><use transform="matrix(0.049382716049382706,0,0,0.049382716049382706,39.456790123456784,0)" xlink:href="#M"/><use transform="matrix(0.049382716049382706,0,0,0.049382716049382706,49.33333333333333,0)" xlink:href="#K"/><use transform="matrix(0.049382716049382706,0,0,0.049382716049382706,58.222222222222214,0)" xlink:href="#E"/><use transform="matrix(0.049382716049382706,0,0,0.049382716049382706,63.16049382716048,0)" xlink:href="#N"/><use transform="matrix(0.049382716049382706,0,0,0.049382716049382706,67.06172839506172,0)" xlink:href="#P"/><use transform="matrix(0.049382716049382706,0,0,0.049382716049382706,76.93827160493827,0)" xlink:href="#U"/><use transform="matrix(0.049382716049382706,0,0,0.049382716049382706,86.81481481481481,0)" xlink:href="#D"/></g><g id="p"><use transform="matrix(0.049382716049382706,0,0,0.049382716049382706,0,0)" xlink:href="#ah"/><use transform="matrix(0.049382716049382706,0,0,0.049382716049382706,12.790123456790122,0)" xlink:href="#ag"/><use transform="matrix(0.049382716049382706,0,0,0.049382716049382706,16.691358024691354,0)" xlink:href="#M"/><use transform="matrix(0.049382716049382706,0,0,0.049382716049382706,26.567901234567895,0)" xlink:href="#N"/><use transform="matrix(0.049382716049382706,0,0,0.049382716049382706,30.46913580246913,0)" xlink:href="#G"/></g><g id="q"><use transform="matrix(0.049382716049382706,0,0,0.049382716049382706,0,0)" xlink:href="#B"/><use transform="matrix(0.049382716049382706,0,0,0.049382716049382706,11.85185185185185,0)" xlink:href="#F"/><use transform="matrix(0.049382716049382706,0,0,0.049382716049382706,21.728395061728392,0)" xlink:href="#U"/><use transform="matrix(0.049382716049382706,0,0,0.049382716049382706,31.604938271604933,0)" xlink:href="#R"/></g><g id="r"><use transform="matrix(0.049382716049382706,0,0,0.049382716049382706,0,0)" xlink:href="#ag"/><use transform="matrix(0.049382716049382706,0,0,0.049382716049382706,3.9012345679012337,0)" xlink:href="#N"/><use transform="matrix(0.049382716049382706,0,0,0.049382716049382706,7.802469135802467,0)" xlink:href="#D"/><use transform="matrix(0.049382716049382706,0,0,0.049382716049382706,16.691358024691354,0)" xlink:href="#E"/></g><path fill="#3a414a" d="M240 0l2-218c-23 76-54 145-80 218h-23L58-218 59 0H30v-248h44l77 211c21-75 51-140 76-211h43V0h-30" id="ak"/><path fill="#3a414a" d="M101-234c-31-9-42 10-38 44h38v23H63V0H32v-167H5v-23h27c-7-52 17-82 69-68v24" id="al"/><g id="s"><use transform="matrix(0.049382716049382706,0,0,0.049382716049382706,0,0)" xlink:href="#ak"/><use transform="matrix(0.049382716049382706,0,0,0.049382716049382706,14.765432098765428,0)" xlink:href="#P"/><use transform="matrix(0.049382716049382706,0,0,0.049382716049382706,24.641975308641968,0)" xlink:href="#R"/><use transform="matrix(0.049382716049382706,0,0,0.049382716049382706,34.518518518518505,0)" xlink:href="#N"/><use transform="matrix(0.049382716049382706,0,0,0.049382716049382706,38.41975308641974,0)" xlink:href="#al"/><use transform="matrix(0.049382716049382706,0,0,0.049382716049382706,43.35802469135801,0)" xlink:href="#C"/></g><g id="t"><use transform="matrix(0.049382716049382706,0,0,0.049382716049382706,0,0)" xlink:href="#B"/><use transform="matrix(0.049382716049382706,0,0,0.049382716049382706,11.85185185185185,0)" xlink:href="#F"/><use transform="matrix(0.049382716049382706,0,0,0.049382716049382706,21.728395061728392,0)" xlink:href="#E"/></g><g id="u"><use transform="matrix(0.049382716049382706,0,0,0.049382716049382706,0,0)" xlink:href="#N"/><use transform="matrix(0.049382716049382706,0,0,0.049382716049382706,3.9012345679012337,0)" xlink:href="#E"/><use transform="matrix(0.049382716049382706,0,0,0.049382716049382706,8.839506172839505,0)" xlink:href="#F"/><use transform="matrix(0.049382716049382706,0,0,0.049382716049382706,18.716049382716044,0)" xlink:href="#G"/></g><g id="v"><use transform="matrix(0.049382716049382706,0,0,0.049382716049382706,0,0)" xlink:href="#R"/><use transform="matrix(0.049382716049382706,0,0,0.049382716049382706,9.87654320987654,0)" xlink:href="#N"/><use transform="matrix(0.049382716049382706,0,0,0.049382716049382706,13.777777777777775,0)" xlink:href="#D"/><use transform="matrix(0.049382716049382706,0,0,0.049382716049382706,22.666666666666664,0)" xlink:href="#K"/><use transform="matrix(0.049382716049382706,0,0,0.049382716049382706,31.55555555555555,0)" xlink:href="#P"/><use transform="matrix(0.049382716049382706,0,0,0.049382716049382706,41.43209876543209,0)" xlink:href="#I"/><use transform="matrix(0.049382716049382706,0,0,0.049382716049382706,51.30864197530863,0)" xlink:href="#U"/><use transform="matrix(0.049382716049382706,0,0,0.049382716049382706,61.185185185185176,0)" xlink:href="#E"/></g><path fill="#3a414a" d="M63-220v92h138v28H63V0H30v-248h175v28H63" id="am"/><g id="w"><use transform="matrix(0.049382716049382706,0,0,0.049382716049382706,0,0)" xlink:href="#am"/><use transform="matrix(0.049382716049382706,0,0,0.049382716049382706,10.814814814814813,0)" xlink:href="#ag"/><use transform="matrix(0.049382716049382706,0,0,0.049382716049382706,14.716049382716047,0)" xlink:href="#M"/><use transform="matrix(0.049382716049382706,0,0,0.049382716049382706,24.592592592592588,0)" xlink:href="#T"/></g><path fill="#3a414a" d="M108 0H70L1-190h34L89-25l56-165h34" id="an"/><g id="x"><use transform="matrix(0.049382716049382706,0,0,0.049382716049382706,0,0)" xlink:href="#af"/><use transform="matrix(0.049382716049382706,0,0,0.049382716049382706,12.790123456790122,0)" xlink:href="#F"/><use transform="matrix(0.049382716049382706,0,0,0.049382716049382706,22.666666666666664,0)" xlink:href="#G"/><use transform="matrix(0.049382716049382706,0,0,0.049382716049382706,37.432098765432094,0)" xlink:href="#P"/><use transform="matrix(0.049382716049382706,0,0,0.049382716049382706,47.30864197530863,0)" xlink:href="#an"/><use transform="matrix(0.049382716049382706,0,0,0.049382716049382706,56.19753086419752,0)" xlink:href="#F"/></g><g id="y"><use transform="matrix(0.049382716049382706,0,0,0.049382716049382706,0,0)" xlink:href="#ah"/><use transform="matrix(0.049382716049382706,0,0,0.049382716049382706,12.790123456790122,0)" xlink:href="#J"/><use transform="matrix(0.049382716049382706,0,0,0.049382716049382706,18.666666666666664,0)" xlink:href="#F"/><use transform="matrix(0.049382716049382706,0,0,0.049382716049382706,28.543209876543205,0)" xlink:href="#M"/><use transform="matrix(0.049382716049382706,0,0,0.049382716049382706,38.419753086419746,0)" xlink:href="#E"/><use transform="matrix(0.049382716049382706,0,0,0.049382716049382706,43.35802469135802,0)" xlink:href="#F"/></g><g id="z"><use transform="matrix(0.049382716049382706,0,0,0.049382716049382706,0,0)" xlink:href="#M"/><use transform="matrix(0.049382716049382706,0,0,0.049382716049382706,9.87654320987654,0)" xlink:href="#K"/><use transform="matrix(0.049382716049382706,0,0,0.049382716049382706,18.76543209876543,0)" xlink:href="#K"/><use transform="matrix(0.049382716049382706,0,0,0.049382716049382706,27.654320987654316,0)" xlink:href="#P"/><use transform="matrix(0.049382716049382706,0,0,0.049382716049382706,37.53086419753086,0)" xlink:href="#I"/><use transform="matrix(0.049382716049382706,0,0,0.049382716049382706,47.407407407407405,0)" xlink:href="#U"/><use transform="matrix(0.049382716049382706,0,0,0.049382716049382706,57.28395061728395,0)" xlink:href="#E"/></g><path fill="#333" d="M141 0L90-78 38 0H4l68-98-65-92h35l48 74 47-74h35l-64 92 68 98h-35" id="ao"/><path fill="#333" d="M59-47c-2 24 18 29 38 22v24C64 9 27 4 27-40v-127H5v-23h24l9-43h21v43h35v23H59v120" id="ap"/><g id="A"><use transform="matrix(0.04938271604938272,0,0,0.04938271604938272,0,0)" xlink:href="#V"/><use transform="matrix(0.04938271604938272,0,0,0.04938271604938272,10.370370370370372,0)" xlink:href="#V"/><use transform="matrix(0.04938271604938272,0,0,0.04938271604938272,20.740740740740744,0)" xlink:href="#ac"/><use transform="matrix(0.04938271604938272,0,0,0.04938271604938272,30.617283950617285,0)" xlink:href="#ao"/><use transform="matrix(0.04938271604938272,0,0,0.04938271604938272,39.50617283950618,0)" xlink:href="#ap"/><use transform="matrix(0.04938271604938272,0,0,0.04938271604938272,44.44444444444445,0)" xlink:href="#ac"/><use transform="matrix(0.04938271604938272,0,0,0.04938271604938272,54.320987654320994,0)" xlink:href="#X"/><use transform="matrix(0.04938271604938272,0,0,0.04938271604938272,64.19753086419755,0)" xlink:href="#ab"/><use transform="matrix(0.04938271604938272,0,0,0.04938271604938272,74.07407407407409,0)" xlink:href="#ad"/><use transform="matrix(0.04938271604938272,0,0,0.04938271604938272,82.96296296296298,0)" xlink:href="#ae"/><use transform="matrix(0.04938271604938272,0,0,0.04938271604938272,93.33333333333334,0)" xlink:href="#ae"/></g></defs></g></svg>